<?xml version="1.0" encoding="utf-8"?>
<!-- Generator: Adobe Illustrator 16.0.0, SVG Export Plug-In . SVG Version: 6.00 Build 0)  -->
<!DOCTYPE svg PUBLIC "-//W3C//DTD SVG 1.1//EN" "http://www.w3.org/Graphics/SVG/1.1/DTD/svg11.dtd">
<svg version="1.1" id="new" xmlns="http://www.w3.org/2000/svg" xmlns:xlink="http://www.w3.org/1999/xlink" x="0px" y="0px"
	 width="234.051px" height="78.721px" viewBox="0 0 234.051 78.721" enable-background="new 0 0 234.051 78.721"
	 xml:space="preserve">
<g>
	<g>
		<g>
			<g>
				<path fill="#8CC63F" d="M22.804,51.194c1.358,1.925,3.042,3.61,4.969,4.971l6.789-11.759L22.804,51.194"/>
				<path fill="#8CC63F" d="M27.773,22.536c-1.927,1.354-3.611,3.044-4.969,4.969l11.757,6.786L27.773,22.536"/>
				<path fill="#8CC63F" d="M48.258,20.683c-2.1-0.977-4.382-1.603-6.789-1.816v13.575L48.258,20.683"/>
				<path fill="#8CC63F" d="M30.977,58.017c2.099,0.974,4.384,1.604,6.791,1.818V46.258L30.977,58.017"/>
				<path fill="#8CC63F" d="M56.434,27.505c-1.358-1.925-3.042-3.614-4.97-4.969l-6.787,11.755L56.434,27.505"/>
				<path fill="#8CC63F" d="M51.463,56.165c1.928-1.359,3.612-3.046,4.97-4.971l-11.757-6.788L51.463,56.165"/>
			</g>
			<g>
				<path fill="#00853F" d="M60.103,37.498c-0.218-2.404-0.846-4.694-1.815-6.789l-11.761,6.789H60.103"/>
				<path fill="#00853F" d="M19.134,41.199c0.218,2.412,0.843,4.695,1.815,6.787l11.763-6.787H19.134"/>
				<path fill="#00853F" d="M20.949,30.709c-0.972,2.095-1.599,4.385-1.815,6.789h13.578L20.949,30.709"/>
				<path fill="#00853F" d="M46.527,41.199l11.761,6.787c0.972-2.092,1.599-4.375,1.815-6.787H46.527"/>
				<path fill="#00853F" d="M37.768,18.866c-2.407,0.214-4.692,0.841-6.791,1.816l6.791,11.759V18.866"/>
				<path fill="#00853F" d="M41.469,59.836c2.407-0.215,4.689-0.846,6.789-1.818l-6.789-11.76V59.836"/>
			</g>
		</g>
		<g>
			<path fill="#00853F" d="M55.151,21.335c0-1.356,1.112-2.469,2.482-2.469c1.363,0,2.47,1.112,2.47,2.469
				c0,1.37-1.106,2.483-2.47,2.483C56.263,23.818,55.151,22.705,55.151,21.335z M59.708,21.335c0-1.205-0.869-2.073-2.075-2.073
				c-1.212,0-2.088,0.868-2.088,2.073c0,1.219,0.876,2.087,2.088,2.087C58.839,23.423,59.708,22.553,59.708,21.335z M57.066,22.738
				h-0.362v-2.831h1.219c0.738,0,0.988,0.276,0.988,0.783c0,0.546-0.383,0.751-0.876,0.79l0.842,1.258H58.47l-0.797-1.258h-0.607
				V22.738z M57.567,21.15c0.396,0,0.949,0.065,0.949-0.467c0-0.396-0.329-0.448-0.672-0.448h-0.778v0.915H57.567z"/>
		</g>
	</g>
	<g>
		<g>
			<g>
				<path d="M83.697,34.775c-0.132-1.807-2.067-3.009-4.001-3.009c-4.658,0-5.521,4.263-5.521,7.587
					c0,3.896,1.181,7.578,5.286,7.578c2.009,0,3.842-0.994,4.154-3.003h2.746c-0.26,3.163-3.452,5.25-7.135,5.25
					c-5.571,0-7.79-4.546-7.79-9.825c0-4.629,2.034-10.018,8.36-9.834c3.634,0.104,6.357,1.884,6.643,5.256H83.697"/>
				<path d="M90.959,42.696c-0.181,2.304,0.761,4.68,3.293,4.68c1.935,0,2.901-0.755,3.193-2.664h2.613
					c-0.394,2.979-2.692,4.468-5.83,4.468c-4.209,0-5.882-2.977-5.882-6.847c0-3.843,1.932-7.061,6.089-7.061
					c3.923,0.077,5.777,2.562,5.777,6.191v1.231L90.959,42.696 M97.602,40.977c0.05-2.201-0.945-3.901-3.35-3.901
					c-2.065,0-3.293,1.751-3.293,3.901H97.602z"/>
				<path d="M105.193,37.599h0.051c0.839-1.648,2.668-2.326,3.974-2.326c0.916,0,4.972,0.238,4.972,4.447v9.065h-2.486v-8.26
					c0-2.17-0.913-3.346-3.01-3.346c0,0-1.357-0.079-2.403,0.969c-0.365,0.362-1.046,0.941-1.046,3.503v7.133h-2.484v-13.12h2.434
					v1.935"/>
				<path d="M118.115,35.661v-2.792l2.484-0.786v3.578h3.032v1.803H120.6v8.426c0,0.938,0.732,1.382,1.623,1.382
					c0.391,0,0.912-0.051,1.303-0.153v1.907c-0.569,0.028-1.125,0.154-1.692,0.154c-0.604,0-1.076-0.023-1.674-0.126
					c-0.396-0.079-1.052-0.287-1.466-0.865c-0.444-0.627-0.577-0.678-0.577-2.431v-8.294h-2.246v-1.803H118.115"/>
				<path d="M134.551,35.665h2.48v13.121h-2.428v-1.93h-0.054c-0.995,1.643-2.668,2.323-4.498,2.323
					c-2.745,0-4.315-2.086-4.315-4.73v-8.784h2.486v7.764c0,2.276,0.521,3.947,2.901,3.947c1.019,0,2.401-0.521,2.931-1.883
					c0.469-1.226,0.495-2.768,0.495-3.083L134.551,35.665"/>
				<path d="M142.834,48.785h-2.482v-13.12h2.482v2.533h0.055c0.367-1.802,2.035-2.717,3.842-2.717c0.313,0,0.578,0.03,0.861,0.03
					v2.351c-0.338-0.128-0.73-0.128-1.07-0.128c-3.139,0.102-3.688,1.775-3.688,4.548V48.785"/>
				<polyline points="154.939,53.81 152.398,53.81 154.387,48.736 148.926,35.665 151.691,35.665 155.799,46.018 159.988,35.665 
					162.65,35.665 154.939,53.81 				"/>
			</g>
			<g>
				<polyline points="164.512,48.785 164.512,29.91 168.564,29.91 168.564,45.652 176.748,45.652 176.748,48.785 164.512,48.785 
									"/>
				<path d="M179.072,29.91h4.184v3.375h-4.184V29.91z M179.203,35.665h3.922v13.121h-3.922V35.665z"/>
				<path d="M190.779,37.18l0.051,0.08c0.814-1.205,2.041-1.987,4.027-1.987c1.307,0,3.844,0.964,4.312,2.876
					c0.211,0.81,0.267,1.647,0.267,2.092v8.544h-3.924v-7.891c-0.023-1.414-0.421-3.005-2.354-3.005
					c-1.23,0-2.302,1.098-2.354,3.005v7.891h-3.92v-13.12h3.895v1.516"/>
				<polyline points="207.15,40.977 207.201,41.023 211.07,35.51 215.436,35.51 210.912,41.26 215.723,48.785 211.148,48.785 
					207.201,41.6 207.15,41.652 207.15,48.785 203.23,48.785 203.23,29.91 207.15,29.91 207.15,40.977 				"/>
			</g>
		</g>
		<g>
			<path d="M217.262,37.979c0-1.357,1.113-2.468,2.482-2.468c1.365,0,2.469,1.11,2.469,2.468c0,1.37-1.104,2.483-2.469,2.483
				C218.375,40.463,217.262,39.349,217.262,37.979z M221.818,37.979c0-1.204-0.869-2.073-2.074-2.073
				c-1.211,0-2.088,0.869-2.088,2.073c0,1.218,0.877,2.089,2.088,2.089C220.949,40.067,221.818,39.197,221.818,37.979z
				 M219.178,39.382h-0.363V36.55h1.222c0.735,0,0.985,0.277,0.985,0.784c0,0.546-0.383,0.752-0.875,0.791l0.842,1.258h-0.407
				l-0.797-1.258h-0.604v1.257H219.178z M219.678,37.794c0.396,0,0.949,0.066,0.949-0.467c0-0.395-0.33-0.449-0.672-0.449h-0.777
				v0.916H219.678z"/>
		</g>
	</g>
</g>
</svg>
